<?xml version="1.0" encoding="UTF-8" standalone="no"?>
<svg
   xmlns:osb="http://www.openswatchbook.org/uri/2009/osb"
   xmlns:dc="http://purl.org/dc/elements/1.1/"
   xmlns:cc="http://creativecommons.org/ns#"
   xmlns:rdf="http://www.w3.org/1999/02/22-rdf-syntax-ns#"
   xmlns:svg="http://www.w3.org/2000/svg"
   xmlns="http://www.w3.org/2000/svg"
   xmlns:xlink="http://www.w3.org/1999/xlink"
   xmlns:sodipodi="http://sodipodi.sourceforge.net/DTD/sodipodi-0.dtd"
   xmlns:inkscape="http://www.inkscape.org/namespaces/inkscape"
   inkscape:export-ydpi="548.43158"
   inkscape:export-xdpi="548.43158"
   inkscape:export-filename="/mnt/bigone/lib/MuseoPheno/metadata/MuseoPheno_logo_512.png"
   sodipodi:docname="MuseoPheno_logo.svg"
   inkscape:version="1.0 (4035a4fb49, 2020-05-01)"
   id="svg8192"
   version="1.1"
   viewBox="0 0 82.428388 23.691271"
   height="23.691271mm"
   width="82.428391mm">
  <defs
     id="defs8186">
    <linearGradient
       id="linearGradient2983"
       inkscape:collect="always">
      <stop
         id="stop2979"
         offset="0"
         style="stop-color:#000000;stop-opacity:1;" />
      <stop
         id="stop2981"
         offset="1"
         style="stop-color:#000000;stop-opacity:0;" />
    </linearGradient>
    <linearGradient
       osb:paint="solid"
       id="linearGradient1191">
      <stop
         id="stop1189"
         offset="0"
         style="stop-color:#000000;stop-opacity:1;" />
    </linearGradient>
    <clipPath
       id="clipPath8092"
       clipPathUnits="userSpaceOnUse">
      <circle
         id="circle8094"
         cx="212.87865"
         cy="157.74487"
         r="6.3783479"
         style="opacity:1;vector-effect:none;fill:#39a235;fill-opacity:1;stroke-width:0.20646675;stroke-linecap:butt;stroke-linejoin:miter;stroke-miterlimit:4;stroke-dasharray:none;stroke-dashoffset:0;stroke-opacity:1"
         transform="rotate(15)" />
    </clipPath>
    <clipPath
       id="clipPath7426"
       clipPathUnits="userSpaceOnUse">
      <rect
         transform="rotate(-15)"
         style="opacity:1;vector-effect:none;fill:#008000;fill-opacity:1;stroke:none;stroke-width:2.45800018;stroke-linecap:butt;stroke-linejoin:miter;stroke-miterlimit:4;stroke-dasharray:none;stroke-dashoffset:0;stroke-opacity:1"
         id="rect7428"
         width="13.465402"
         height="9.260417"
         x="151.5"
         y="198.35959" />
    </clipPath>
    <clipPath
       id="clipPath8893"
       clipPathUnits="userSpaceOnUse">
      <circle
         id="circle8895"
         cx="25.003038"
         cy="22.983435"
         r="6.3783479"
         style="opacity:1;vector-effect:none;fill:#39a235;fill-opacity:1;stroke-width:0.20646675;stroke-linecap:butt;stroke-linejoin:miter;stroke-miterlimit:4;stroke-dasharray:none;stroke-dashoffset:0;stroke-opacity:1"
         transform="rotate(15)" />
    </clipPath>
    <clipPath
       id="clipPath8893-2"
       clipPathUnits="userSpaceOnUse">
      <circle
         id="circle8895-9"
         cx="25.003038"
         cy="22.983435"
         r="6.3783479"
         style="opacity:1;vector-effect:none;fill:#39a235;fill-opacity:1;stroke-width:0.20646675;stroke-linecap:butt;stroke-linejoin:miter;stroke-miterlimit:4;stroke-dasharray:none;stroke-dashoffset:0;stroke-opacity:1"
         transform="rotate(15)" />
    </clipPath>
    <clipPath
       id="clipPath7426-3"
       clipPathUnits="userSpaceOnUse">
      <rect
         transform="rotate(-15)"
         style="opacity:1;vector-effect:none;fill:#008000;fill-opacity:1;stroke:none;stroke-width:2.45800018;stroke-linecap:butt;stroke-linejoin:miter;stroke-miterlimit:4;stroke-dasharray:none;stroke-dashoffset:0;stroke-opacity:1"
         id="rect7428-1"
         width="13.465402"
         height="9.260417"
         x="151.5"
         y="198.35959" />
    </clipPath>
    <linearGradient
       gradientUnits="userSpaceOnUse"
       y2="31.975761"
       x2="-3.7977707"
       y1="31.975761"
       x1="-34.192099"
       id="linearGradient2985"
       xlink:href="#linearGradient2983"
       inkscape:collect="always" />
  </defs>
  <sodipodi:namedview
     showguides="false"
     inkscape:document-rotation="0"
     inkscape:snap-bbox="true"
     inkscape:window-maximized="1"
     inkscape:window-y="31"
     inkscape:window-x="0"
     inkscape:window-height="1021"
     inkscape:window-width="1920"
     fit-margin-bottom="0"
     fit-margin-right="0"
     fit-margin-left="0"
     fit-margin-top="0"
     showgrid="false"
     inkscape:current-layer="g1434"
     inkscape:document-units="mm"
     inkscape:cy="50.156487"
     inkscape:cx="89.639654"
     inkscape:zoom="1.5277975"
     inkscape:pageshadow="2"
     inkscape:pageopacity="0.0"
     borderopacity="1.0"
     bordercolor="#666666"
     pagecolor="#ffffff"
     id="base" />
  <metadata
     id="metadata8189">
    <rdf:RDF>
      <cc:Work
         rdf:about="">
        <dc:format>image/svg+xml</dc:format>
        <dc:type
           rdf:resource="http://purl.org/dc/dcmitype/StillImage" />
        <dc:title />
      </cc:Work>
    </rdf:RDF>
  </metadata>
  <g
     transform="translate(70.823867,-20.108717)"
     id="layer1"
     inkscape:groupmode="layer"
     inkscape:label="Calque 1">
    <text
       inkscape:export-filename="/mnt/DATA/lib/MuseoToolBox/metadata/museoToolBox_logo_256.png"
       inkscape:export-ydpi="274.52634"
       inkscape:export-xdpi="274.52634"
       id="text8905"
       y="43.555748"
       x="-71.692276"
       style="font-style:normal;font-weight:normal;font-size:6.94727px;line-height:1.25;font-family:sans-serif;letter-spacing:0px;word-spacing:0px;fill:#000000;fill-opacity:1;stroke:none;stroke-width:0.173682"
       xml:space="preserve"><tspan
         style="font-style:normal;font-variant:normal;font-weight:normal;font-stretch:normal;font-size:27.7891px;font-family:'Six Caps';-inkscape-font-specification:'Six Caps';stroke-width:0.173682"
         y="43.555748"
         x="-71.692276"
         id="tspan8903"
         sodipodi:role="line">Museo</tspan></text>
    <g
       transform="matrix(-0.01580612,-0.11148247,-0.11859547,0.01681462,-7.8408275,-1.1915936)"
       id="g1434">
      <path
         inkscape:connector-curvature="0"
         id="path1442"
         d="m -376.15387,-8.1013872 c 4.83197,-6.2109178 12.12805,-10.3843738 13.82655,-17.3857598 3.54334,-2.98889 15.62836,-2.252376 14.80211,-4.644326 -9.28431,-1.334491 -19.2367,2.21003 -27.52756,-3.790681 -4.06745,-0.21091 -12.32011,-4.043142 -4.17665,-6.487103 5.40295,-5.648745 -18.8601,-0.757838 -11.7424,-8.696929 5.79152,-3.958615 -13.33051,-3.33532 -5.26446,-8.46309 -4.84723,-1.55509 -13.77139,-7.796911 -14.90916,-8.381787 7.00821,-1.280593 17.18052,2.785533 20.07497,-2.946873 5.14557,1.295641 14.59062,8.025977 11.28192,-2.138942 3.48561,-1.591599 16.1578,4.23764 9.57431,-3.24005 -4.87462,-0.566955 -5.35861,-6.160595 -4.79509,-6.953753 -5.56074,-0.658395 -5.45753,-9.042943 0.83077,-7.316045 -5.61325,-3.070305 -7.83873,-8.401319 -2.94294,-9.371589 -5.59896,-4.878935 -0.78871,-11.945995 -7.34687,-16.657605 8.26456,3.47081 17.36535,3.5279 24.1724,8.76563 4.46338,2.9236 6.55263,-2.81599 9.64052,3.46619 4.49713,2.930303 9.37443,11.594629 13.32802,11.327563 -1.40128,-5.64549 -5.70507,-12.694843 -2.47376,-17.137443 -4.97405,-6.78134 5.00362,-9.42559 2.61022,-15.64585 3.76237,-2.84205 3.79082,-4.44451 4.85098,-8.87238 6.05819,-2.16273 2.84098,-15.01074 7.63475,-14.74282 -0.14646,10.47534 13.32321,11.28174 14.04589,20.00681 3.17648,-1.08465 7.4926,-3.67105 6.54256,2.7853 -0.71296,3.1531 0.48817,8.31271 4.51975,5.30264 0.97001,6.28082 4.55997,2.87227 7.05671,2.37064 6.54326,3.13964 1.06793,-12.56328 9.38051,-12.98165 5.65625,5.03569 3.48989,-6.66795 9.59416,-8.24451 4.48661,-0.80754 8.83899,-12.42347 11.05239,-9.79829 -3.47034,7.46792 1.03467,14.61375 2.36721,20.00174 -2.2414,4.89774 2.03204,5.36698 4.2948,5.41363 0.83617,4.20443 -8.77721,14.82657 1.06386,10.57441 8.98563,2.71705 -9.76292,17.133005 2.21317,14.461867 2.22063,-3.494297 6.26131,-5.996297 8.0457,-4.373497 3.45193,-6.10843 5.87955,3.135596 7.85211,-1.45389 6.38523,-3.93234 18.55249,-8.47788 23.06877,-9.02346 -7.15288,6.27174 -10.71811,18.24915 -11.81959,26.068772 4.69726,6.215724 -14.10987,11.983896 -4.55244,15.396613 -5.13237,6.013448 -10.5471,11.71213 -18.12526,14.498163 -3.8412,2.501292 7.40579,-0.663534 10.11807,0.548038 5.36145,0.167031 5.85985,4.235254 11.39784,1.784074 5.81423,0.458614 1.91277,6.862774 8.46387,5.436248 4.82284,0.861399 18.69673,5.742137 6.27351,5.152348 -9.91542,-1.062959 -15.38924,6.729472 -23.70136,8.506337 6.00152,4.013489 -11.07179,6.279372 -14.84874,9.34908 -4.19991,0.334404 -15.7517,1.812819 -5.89874,5.053849 0.28845,6.25356 11.95993,10.064933 11.16852,14.1523063 -8.01086,-2.2970826 -16.79775,-2.7131299 -24.82237,-0.7893183 -11.80398,-0.327579 -21.41014,-7.916821 -28.86112,-16.195141 -10.58189,-5.820491 -15.34483,7.681332 -23.26692,11.520209 -4.9721,3.6299641 -7.64975,0.03923 -3.05209,-3.889483 -5.82693,2.270299 -11.99924,11.0621448 -20.05435,9.0792979 -3.28174,-4.7144239 -12.69031,2.2034035 -12.93645,-3.4188769 -6.041,0.3764116 -11.98828,1.6725631 -18.0286,2.0193868 z"
         style="fill:#e18f45;stroke-width:0.29687" />
      <path
         inkscape:connector-curvature="0"
         id="path1440"
         d="m -407.5101,-64.910843 c 5.50565,-2.294514 5.4666,3.762307 0,0 z m 3.00673,2.210636 c 3.4186,-2.623362 2.22627,3.003064 0,0 z m 35.2986,47.33025 c 3.17007,-0.747812 10.33787,-5.479459 3.67246,-6.810642 4.28975,-6.653724 15.20303,-2.675584 19.26197,-8.606052 -9.63449,0.301261 -21.50183,0.705833 -29.17752,-4.2095 7.52823,1.660099 10.64184,-6.199247 4.49148,-9.3424 -7.44267,5.645689 1.99414,-12.576347 -8.21767,-8.840958 4.02804,5.178539 -6.61468,-5.297797 -5.53635,1.506606 -3.3815,-3.167975 0.60038,-9.421143 5.12492,-4.413795 3.31449,3.352568 14.40126,4.245234 7.46382,-2.052145 -6.70299,-6.000052 -0.52502,-8.775542 1.67023,-6.027603 -4.1746,-3.384156 -2.71902,-8.371242 2.65907,-4.972434 -2.18493,-3.955738 -0.59736,-8.956341 0.29608,-8.851803 -4.57126,1.537608 -7.78565,0.678999 -5.94158,-3.848112 -3.95275,-2.598211 -3.83245,-4.874774 -0.31195,-6.542046 -2.06489,-3.715 -0.88945,-4.85106 -4.91487,-6.192402 7.47648,1.911574 2.45097,-2.596872 0.88373,-6.618677 6.56874,1.554595 -6.23393,-7.11691 0.81954,-9.87694 7.92629,1.01477 15.1357,5.58686 22.45478,6.77518 5.44493,1.34135 13.51546,15.661531 18.11454,13.872256 -3.2838,-6.022908 -4.12388,-13.869076 -3.35571,-19.330156 -3.85483,-5.32165 6.82032,-8.50962 3.11426,-14.47013 3.42255,-1.79151 5.73539,-2.5528 4.44725,-7.22389 5.61203,-3.35747 3.78142,-12.69078 7.26231,-15.42928 0.47295,5.98239 8.09256,11.99633 10.54977,13.71055 3.4145,-1.19433 2.9181,12.41982 7.14495,4.43893 5.54361,1.37875 0.10143,14.53883 7.55278,10.7174 0.33608,6.85995 7.90452,-0.54498 10.28764,2.37404 0.4414,-5.88058 2.26828,-18.21096 10.03144,-11.96393 1.0665,-9.61599 12.17826,-12.57615 15.78685,-20.80102 -2.39369,9.09299 3.62204,16.86986 2.705,25.04221 1.76162,2.85899 6.71569,-1.94168 4.01675,4.37437 -2.16819,3.30719 -6.21378,11.50397 1.38942,7.57158 9.22245,1.68937 -9.42596,17.16759 1.23812,14.025765 4.1736,1.616035 3.76717,-6.579685 9.63904,-4.174345 3.74148,-5.03304 6.5425,4.148147 9.51527,-2.36434 5.58653,-2.4449 17.68966,-8.21866 19.66245,-7.12627 -7.02093,6.04111 -7.47106,16.231483 -11.37123,23.703044 6.51608,6.512232 -12.37001,11.787547 -4.07134,16.320853 -4.51888,6.652741 -11.02638,11.634309 -18.50475,14.695249 -3.92832,3.861347 9.60732,-1.575687 12.94046,1.126052 3.10099,5.344089 11.38148,-1.779581 12.8831,4.361122 -1.73762,3.09561 11.48516,1.83013 14.02482,6.60813 -9.26642,-0.810609 -16.4258,4.72761 -23.55332,7.69149 -6.76858,0.916841 3.05586,3.753507 -4.19638,4.9362 -6.96329,1.710302 -12.64712,6.55573 -20.03081,6.53947 -10.95196,1.202024 2.62035,3.009194 2.09718,8.947583 4.25697,1.350735 14.0342,12.4215268 4.13945,7.7104608 -11.47697,-1.7926538 -24.43953,3.7412612 -34.5779,-4.1051758 -7.86662,-5.500887 -18.12286,-20.107268 -27.33281,-7.958845 -2.72167,3.138635 -12.24965,12.6157678 -13.5254,7.841368 5.55121,-9.939003 -5.58103,1.860342 -8.72423,3.2644729 -4.3808,4.1755215 -10.63531,0.7117525 -13.04478,-0.2890435 -5.83869,3.2615507 -11.48228,-8.0323174 -16.967,-1.0064434 0.78296,-6.661854 -2.23504,-2.835541 -3.98533,-4.706004 z m 19.20319,4.20605 c 0.84136,-2.426011 -1.94698,0.09471 0,0 z m -17.16719,-33.116195 c 2.58657,-2.095068 -2.61095,0.377053 0,0 z m 1.91514,-6.78812 c 1.75698,-4.159241 -3.31548,-1.89965 0,0 z m -2.607,-9.055339 c 1.47479,-2.932748 -3.88112,-0.351162 0,0 z m -5.64452,-24.476389 c 3.15104,-0.615582 -3.37901,-1.119541 -0.13646,-0.0525 z m 102.22237,59.083393 c 6.35005,0.357986 -5.96858,-1.909192 0,0 z m -128.43869,-36.925288 c 4.29118,-5.790603 1.00009,5.192182 0,0 z m 38.40865,51.755948 c 3.18472,-0.97951 -1.66306,1.9856276 0,0 z m -21.53415,-33.430747 c 1.95351,-1.372816 3.88229,1.610569 0,0 z m 2.23798,-0.328662 c 1.93548,-2.239001 0.68192,2.096684 0,0 z m 5.6724,6.207708 c 2.61587,-2.75766 4.82639,0.806858 0,0 z m 1.07448,-2.19936 c 2.86383,-3.285845 5.31051,0.98999 0,0 z m 3.88438,0.756628 c 5.1849,-1.764904 -2.45714,3.450123 0,0 z m -12.13781,-73.0281 c 3.08049,-1.62782 0.79506,3.24427 0,0 z"
         style="fill:#de560b;stroke-width:0.29687" />
      <path
         inkscape:connector-curvature="0"
         id="path1438"
         d="m -406.90554,-64.958909 c 2.59866,-1.62713 0.26911,2.095405 0,0 z m 47.4099,50.024992 c 3.55036,-2.54565 2.60904,2.11658 0,0 z m -0.88343,-2.05802 c 2.30375,-4.379349 0.52846,2.658108 0,0 z m -1.61991,-5.2008 c 11.48647,-0.620727 -2.51642,6.468804 0,0 z m -5.99855,-11.828446 c 1.95919,-1.539554 0.0322,2.485085 0,0 z m 14.88426,18.810546 c 2.9798,-2.833952 0.13515,5.024194 0,0 z m 1.86581,-1.09236 c 1.57021,-1.356284 -0.41361,2.368545 0,0 z m -5.09676,-9.75137 c 3.82274,-3.711649 4.2235,4.942199 9.09171,1.204664 1.30766,3.696678 3.76166,8.096809 6.56903,2.45056 4.50709,0.536688 4.63954,4.792908 -0.39057,3.05114 -7.96931,7.088368 -8.12989,-4.329046 -15.28837,-6.412563 z m 3.22598,5.14101 c 1.8496,-3.689997 0.1275,3.505832 0,0 z m -3.53631,-11.082685 c 3.40715,-0.520848 -1.10024,1.800492 0,0 z m 14.08487,18.223305 c 1.17154,-7.97791 4.36002,3.194707 0,0 z m -25.48436,-37.707776 c 2.49431,-2.702031 1.63891,3.486396 0,0 z m 30.0842,39.767126 c 2.93461,-1.31841 -0.77114,2.5967824 0,0 z m 0.83024,-2.3472 c 2.05581,-3.545014 0.98687,2.733313 0,0 z m -14.48122,-23.675667 c 2.67809,-0.229558 -1.91061,1.494724 0,0 z m 6.17866,9.668317 c 3.5521,-1.296176 1.42581,1.669153 0,0 z m -11.42541,-18.972926 c 3.13921,-2.578102 1.25562,2.194526 0,0 z m 11.70333,14.848152 c -7.82709,-5.138067 9.04231,-14.767981 5.08628,-4.99719 3.05408,-4.817078 13.3778,-0.428842 8.28084,-8.35319 -0.8865,-3.344063 -11.23949,-10.344457 -6.23949,-11.175958 2.24141,0.85625 -6.98965,-7.600116 0.63786,-7.788039 -5.6993,2.037331 -5.90242,-4.857108 -6.99453,-4.729077 -4.57777,0.900142 -5.72065,-2.735608 -0.0772,-2.595743 5.0327,-4.269853 -13.69534,-7.224581 -5.33478,-7.267537 -5.88331,-5.978903 -8.16216,-12.122075 -14.48136,-17.901407 1.14646,-2.911924 8.137,7.748151 10.69675,10.091598 5.6287,4.858188 11.18304,17.412587 17.42276,17.258062 0.69937,-4.702258 -5.68937,-6.603505 0.65634,-9.809516 3.22962,-7.390105 7.14106,0.08931 8.77505,2.502509 4.14375,-3.72832 -7.49215,-7.502779 1.48819,-8.811106 5.70165,-6.147574 -7.09616,-8.841055 -8.11813,-1.358702 -1.05524,-2.090116 2.25085,-5.934364 -2.21298,-4.805679 4.84385,-3.723706 -6.28713,-2.474387 -3.43618,-8.013171 -0.86418,-5.224083 0.90561,-10.783953 -1.06657,-15.768593 8.1656,0.73387 -0.59345,-12.86848 8.08315,-9.07796 -2.24027,-8.10374 7.00835,-13.60247 6.05977,-21.9072 1.75397,3.6492 5.47815,9.50132 9.87671,12.68869 0.32439,2.79817 4.7451,-0.37659 4.48945,5.03087 0.79222,7.16297 6.8282,-3.91356 6.86823,4.42703 -0.44669,3.35039 0.27949,10.44929 4.94596,5.69925 -0.83257,7.6976 7.39391,1.59286 10.68043,3.81513 0.12805,-6.09926 1.63695,-18.66108 9.69079,-12.49955 1.3492,-9.45046 12.11355,-12.56517 15.8214,-20.69949 -2.89698,8.58098 3.33682,16.29236 2.58104,23.8687 0.57413,4.73506 7.64161,0.01 3.62775,6.30343 -3.96094,5.16087 -3.88041,9.76012 3.14923,6.99132 4.62066,4.4486 -9.55183,16.522579 0.26545,13.912007 4.11405,3.030308 3.94258,-7.509097 10.08514,-4.206037 2.56431,-2.96947 6.24255,2.934495 9.16742,-3.04236 6.06058,0.0311 13.01893,-7.73096 18.55763,-5.97985 -6.74218,6.47543 -6.82974,16.767812 -11.64896,24.513613 7.81791,5.044298 -12.736,10.85358 -3.18856,15.35481 -4.89559,6.102857 -10.99279,10.894518 -18.1966,14.062572 -4.69501,4.217167 8.41401,-1.043628 11.36087,1.257151 5.62295,0.62045 3.07695,7.776551 7.96808,2.295892 2.26065,-1.438825 8.67249,0.152145 4.77724,3.356695 4.58907,-0.100995 21.15324,5.45027 8.40089,6.018776 -8.08124,0.69292 -13.45814,7.214025 -20.69405,8.736953 4.69639,5.987352 -8.53355,-6.190417 -12.92481,-3.456112 -4.27714,-2.565251 -8.05571,8.507556 -9.02718,0.945151 -8.28245,0.909602 9.66473,7.956235 1.81922,10.001312 6.02517,3.306098 -12.3816,2.393697 -2.4241,5.394768 6.354,1.188873 -1.96988,6.948193 5.7075,6.989396 7.27833,5.6515703 -4.92138,7.086796 -9.29212,5.1714272 -4.70552,4.0441117 -0.49655,-3.1379122 -5.21784,0.1668741 -7.08121,4.5423466 -13.63205,-4.5481653 -20.80279,-6.1205323 -4.42386,-8.243098 -15.26835,-13.573684 -24.2098,-8.130501 -6.89442,3.292672 -14.7386,0.906654 -21.95975,2.595983 7.48841,-3.097152 -3.06968,-1.341984 -2.17492,-2.922825 0.55762,-3.765369 -3.16854,-9.593126 -7.30474,-8.032644 z m 4.0811,-1.947699 c 1.28067,-2.106048 -2.86927,1.228907 0,0 z m 7.05092,8.679103 c 3.85911,-4.188399 -3.40018,-3.405604 0,0 z m 5.33315,1.40444 c 0.27846,-3.23958 -2.56661,1.919638 0,0 z m -1.076,-1.64867 c 5.87883,-0.222723 -2.62249,-2.01183 0,0 z m 3.57108,1.18206 c 4.54995,1.854266 16.86015,-5.180729 6.21421,-5.790598 -2.56642,-0.833723 -7.63502,4.741935 -6.21421,5.790598 z m 0.10627,-5.576103 c 2.66676,-1.638423 -2.66515,-0.503918 0,0 z m -0.0986,-7.870816 c 1.68726,7.168824 10.34055,-2.720645 2.6841,-2.412321 -0.21248,-5.016427 -6.93664,-8.47677 -4.20312,-1.311298 0.0769,1.33155 0.25591,2.928253 1.51902,3.723619 z m 7.59654,2.218959 c 2.01379,-2.329096 -2.8383,-1.823864 0,0 z m -12.36962,-26.687665 c 4.87542,-4.833402 -4.49888,-5.27072 0,0 z m -3.14295,-11.096591 c 1.27992,-2.984243 -3.5915,1.928517 0,0 z m 2.37202,1.949129 c 2.93917,-4.609399 -4.43346,-4.093357 0,0 z m -1.7889,-4.81738 c 7.13954,-4.126647 -3.98476,-0.328665 0,0 z m 35.62705,51.717617 c 2.72549,-2.56306 14.52461,6.281127 7.90714,-1.03779 -1.54756,-0.649178 -11.34027,-3.807757 -7.90714,1.03779 z m 1.08776,-4.112 c 3.85106,-4.81774 17.52297,-1.544169 16.497,-7.450341 -3.59398,-0.674625 -7.82037,3.578013 -9.77948,0.314723 -1.44378,1.246818 -12.74907,5.227482 -6.71752,7.135618 z m -4.38375,-7.326072 c 0.65655,-3.421715 -1.94015,1.691123 0,0 z m -15.27962,-23.453492 c 2.26727,-1.380134 -2.88674,-1.236052 0,0 z m 18.79692,22.933282 c 3.28142,5.698344 7.22819,-7.297683 2.94733,-0.190183 -0.45867,-1.930324 -7.09618,-1.417985 -2.94733,0.190183 z m 13.2844,13.696292 c 5.03068,-1.407719 -3.37816,-2.858395 0,0 z m 1.8532,-3.72885 c 3.51202,3.909585 11.62057,8.467254 15.93262,4.108907 -6.35502,0.411585 -3.26059,-3.289697 0.39841,-3.113495 -4.59192,-4.611619 9.18681,-0.399233 3.11649,-5.113617 -2.70807,-0.489081 -13.67939,-1.454047 -10.94964,-0.611923 -0.83498,5.215346 -6.44964,-6.546137 -8.61524,0.780906 -0.63361,1.024019 -1.75905,3.412569 0.11736,3.949222 z m 9.34856,2.10591 c 1.89513,-2.999553 0.68777,2.474852 0,0 z m 2.95703,-3.03771 c 1.95106,-1.276729 0.98799,2.714423 0,0 z m -18.17304,-12.792675 c -0.0742,-3.209078 6.88402,-7.014019 -0.43111,-6.537976 -2.48949,1.185553 -2.98929,6.271902 0.43111,6.537976 z m -9.38237,-25.117831 c 1.69573,-2.979466 -3.46008,0.421062 0,0 z m 35.45799,47.581716 c 1.78787,-1.873448 -3.26211,1.326884 0,0 z m -14.5027,-21.152397 c 1.45576,-1.989636 -2.38894,0.232185 0,0 z m 0.72544,-2.602675 c 3.63111,2.697818 6.10569,-6.187357 1.64039,-3.036562 -4.23057,-2.869832 -1.02433,0.994976 -1.64039,3.036562 z m 10.87346,9.914956 c 3.85292,-0.20988 -2.43483,-1.841313 0,0 z m -3.69267,-11.062845 c 5.89955,-2.499065 -2.64554,-2.767173 0,0 z m 6.27832,0.670679 c 6.21156,-3.660477 -4.91022,-1.193401 0,0 z m 3.62748,-0.299203 c 2.74671,-4.260846 -2.45396,-5.607546 0,0 z m 24.59946,-3.962718 c 0.82956,-1.758817 -2.36332,-0.395065 0,0 z m 5.90189,-4.135221 c 3.31668,-2.799733 -3.02316,0.938641 0,0 z m -112.56982,25.198864 c 2.40078,-1.684646 -0.36846,2.678059 0,0 z m -8.47146,-13.617571 c 1.90444,-3.492644 4.84316,-2.150368 0,0 z m -2.54968,-6.904225 c 14.17316,3.423617 -3.09261,2.626987 0,0 z m -8.39827,-12.82067 c 2.30678,-2.07652 0.92898,2.25875 0,0 z m 14.51174,18.293286 c 2.44489,-2.613131 -0.32921,3.107814 0,0 z m 16.34454,22.15379 c 2.75725,-3.234527 1.67255,2.983847 0,0 z m -32.01349,-49.399816 c 4.1795,-2.986859 3.7391,2.040728 0,0 z m 15.33019,19.318609 c 2.37579,-2.453419 1.034,2.0032 0,0 z m -31.48776,-52.488336 c 2.90768,-1.17937 -0.0477,2.477542 0,0 z m 36.46946,53.004713 c 3.1286,-4.797111 2.03448,4.463809 0,0 z m -6.77027,-11.786551 c 4.14573,-5.345625 4.36352,2.60539 0,0 z m -30.26342,-45.655572 c 3.80197,-1.48084 3.25529,2.59949 0,0 z m 19.24358,28.152982 c 2.01237,-1.005377 -0.43214,2.325864 0,0 z m 16.98763,24.605521 c 4.41177,-2.057537 4.25493,4.567468 0,0 z m 5.3223,7.873959 c 3.66782,-3.228648 2.64357,3.904519 0,0 z m -8.11372,-13.946173 c 3.29794,0.08991 -0.59335,1.92495 0,0 z m -13.93281,-21.3236 c 2.3979,-1.963104 1.7019,3.057846 0,0 z m -17.91443,-29.167869 c 3.26152,-0.50687 0.94354,2.29375 0,0 z m 24.86736,28.573862 c 2.12219,-1.805234 0.19952,2.187159 0,0 z m -17.3047,-25.671822 c 0.94398,-2.63593 1.1009,3.63808 0,0 z m 2.83593,1.95423 c -3.44119,-9.69706 11.97044,3.5856 0,0 z m 2.30393,1.41638 c 2.7984,-2.88143 0.91081,3.774415 0,0 z m 2.98704,1.6237 c 1.49301,-8.24841 5.91528,7.003293 -0.34309,1.358842 -0.0995,-0.463972 0.27108,-0.905742 0.34309,-1.358842 z m 6.92931,9.468918 c -0.34306,-4.220458 2.85758,-1.046413 0,0 z m 6.6487,5.772672 c 2.51265,-0.444409 -1.42141,1.850402 0,0 z m 2.23626,2.713148 c 1.74195,-6.393137 -8.97843,-15.562508 -5.54635,-18.239608 5.91573,3.107135 9.75464,12.463196 5.54635,18.239608 z m -7.82334,-12.790151 c 1.82278,-2.062778 -0.37644,3.872294 0,0 z m -0.43834,-2.969248 c 1.31629,-2.093419 0.87869,2.131297 0,0 z m 14.96554,21.646148 c 1.37859,-2.637503 0.98711,1.928872 0,0 z m -16.04644,-25.451947 c -1.98403,-6.16876 2.93557,2.64865 0,0 z m 10.96539,11.834826 c 3.99735,-4.321821 3.88852,6.951304 0,0 z m 5.24752,6.281443 c -2.30615,-9.373456 8.64477,6.75447 0.15248,1.170988 -0.5701,-0.219416 -0.10265,-0.780329 -0.15248,-1.170988 z m 4.47956,-1.63906 c 2.32313,-0.04431 -0.13993,2.602434 0,0 z m 6.10516,-2.868825 c 3.79337,-0.962457 -0.95503,2.144368 0,0 z m 77.11922,79.4015188 c 4.05579,-1.8194308 -0.93292,4.0977846 0,0 z m -3.25155,-20.7346318 c 0.72646,-2.264749 1.32676,1.849425 0,0 z m -1.39777,-3.881099 c 2.09341,-0.111523 -1.48626,2.187328 0,0 z m 10.96164,2.763251 c 4.60286,-4.962522 4.81169,4.399504 0,0 z"
         style="fill:#db1e02;stroke-width:0.29687" />
      <path
         inkscape:connector-curvature="0"
         id="path1436"
         d="m -406.90556,-64.958908 c 2.59867,-1.627118 0.26913,2.095397 0,0 z m 38.90801,30.937725 c 1.9592,-1.539551 0.0322,2.485083 0,0 z m 16.75007,17.718166 c 1.57023,-1.356226 -0.41366,2.368566 0,0 z m -5.30731,-9.38634 c 2.63376,-2.167938 -0.47319,2.540594 0,0 z m -11.49927,-25.791151 c 2.49431,-2.702031 1.63891,3.486408 0,0 z m 31.01839,37.506461 c 3.28944,-5.139279 0.34908,3.378302 0,0 z m -8.40651,-14.09388 c 3.55213,-1.296163 1.42581,1.669121 0,0 z m 3.86675,5.61133 c 6.17627,-0.194618 7.0799,7.462169 0,0 z m -15.29217,-24.584258 c 3.1392,-2.578109 1.25565,2.194516 0,0 z m 3.50952,1.070652 c 3.86087,-0.7905 2.85881,3.179218 0,0 z m 10.62844,14.043756 c 1.59441,-2.670421 1.34899,2.105354 0,0 z m 7.55795,10.13448 c 4.09482,-2.138645 -1.68284,2.682568 0,0 z m -25.34202,-36.918811 c 2.30677,-2.076518 0.92896,2.258751 0,0 z m 11.599,14.041394 c 3.50631,-0.817716 2.60455,4.352547 0,0 z m -12.75621,-22.99413 c 4.1795,-2.986847 3.73909,2.040701 0,0 z m 20.26293,27.301505 c 1.47358,-4.283599 3.32022,2.958357 0,0 z m 11.51761,17.235782 c 3.31408,-1.636631 20.92691,-2.539639 11.31821,-6.794862 -4.36794,-4.886385 -13.54168,-4.596885 -17.76267,-10.192997 6.16588,5.61177 5.62326,-12.7362 7.95055,-2.080354 1.04078,5.958498 7.15754,7.99568 9.6221,4.672127 1.0852,-1.616208 -7.88184,-9.994455 -9.11952,-14.548575 -3.20141,-5.069828 -9.04076,-2.989187 -8.63594,-10.310237 -4.52817,-1.528088 -3.66783,1.482453 -0.55671,-2.248874 -0.18951,-3.891933 -9.78286,1.226642 -5.64958,-4.127754 4.72437,-2.265878 -11.81434,-1.470973 -1.46911,-2.65754 4.26894,-6.23732 -13.14168,-5.914203 -6.28786,-9.592156 -2.88237,-5.862098 -13.76106,-14.239896 -13.70834,-16.856847 12.22622,10.919173 21.08645,24.925799 32.31045,36.758849 6.85534,9.479618 14.29465,18.531039 22.00307,27.328723 1.92536,-6.782562 -3.99582,-14.977806 -3.87497,-23.395438 -1.6799,-14.439012 -4.44474,-28.894769 -5.9658,-43.257888 -3.66848,-4.95424 -0.19609,-11.60781 -4.05026,-18.06457 2.80192,-4.52826 -6.74198,-3.24996 -1.82856,-6.93233 -6.18835,-4.42767 0.3067,-13.27877 -0.55033,-20.0571 2.91709,-0.73087 3.46952,9.19812 8.6894,9.84001 4.25839,6.10332 6.85015,13.42468 9.10281,20.75677 5.60723,-6.95358 -0.49084,13.18388 7.30182,4.90475 3.42387,-10.43185 8.8751,4.85306 4.61325,9.82693 -0.94534,4.847299 -4.71485,12.651642 -3.99904,3.141696 1.16322,-4.390826 -2.81255,-14.972426 -2.61607,-4.567366 2.60092,6.485787 -12.25493,8.269876 -4.62128,4.259757 4.51676,-1.573932 -3.47129,-10.756237 -5.47417,-3.312747 -6.85996,6.663649 -2.22914,16.138752 -1.13879,23.991151 0.87191,14.489486 4.4034,28.636253 8.23834,42.585297 5.84481,5.712822 6.47741,-9.776679 9.34679,-13.157142 6.34976,-15.651333 10.37076,-32.122822 16.56428,-47.831218 1.8938,-7.173618 4.07515,-18.091418 -4.94221,-21.657788 4.8987,3.79802 0.97943,6.89544 -1.83883,1.73654 -3.17985,-6.85893 2.51008,-15.42781 7.91199,-14.21071 3.65398,-7.15252 11.51626,-10.92749 15.1314,-18.11848 -1.76346,7.37335 1.9505,14.4687 3.10583,19.97922 -1.47977,3.19166 -0.86601,8.7685 3.85394,7.64026 -4.74236,5.28218 -3.82205,14.42511 3.36965,10.10926 0.91775,5.92479 -4.55234,12.747966 -8.77003,10.464571 -1.94555,2.914533 -9.155,8.926701 -10.4922,7.517262 -3.38598,0.555613 -5.24289,1.994723 -5.04718,-2.681628 -4.79617,3.331549 -4.27039,12.725094 3.72437,7.753891 3.20634,-3.263949 12.23776,-3.979917 4.07876,-0.488637 -9.15741,0.635557 -15.41379,5.170929 -16.41045,14.754742 -4.21634,12.985513 -9.34426,25.654205 -14.11922,38.450979 4.26442,4.945423 10.77346,-7.907687 14.58963,-10.801918 7.40277,-2.800218 15.54637,-11.110445 22.05611,-18.210412 4.59042,-4.019503 11.01166,-14.62052 14.35303,-14.600154 -6.62418,6.971135 -10.14559,14.383705 -18.25151,19.71137 -6.20979,8.346232 -15.32474,13.560144 -22.37399,21.089741 -2.90615,1.553802 -12.39139,10.169071 -3.6246,6.229909 4.60416,-0.974863 14.03321,-3.981105 15.89895,-3.509576 -4.78184,4.259215 -19.97605,3.246072 -18.88168,8.792462 7.01706,0.464309 12.11173,6.846048 19.22336,7.046323 -11.63604,0.120602 -21.47296,-9.741471 -33.44221,-7.851446 -6.33743,0.563441 -12.48309,2.503128 -18.85498,2.774154 z m -11.03536,-43.325214 c 2.41563,-0.561894 -1.95482,-1.139601 0,0 z m 28.57773,33.580509 c 1.78223,-4.164581 -2.56503,2.075508 0,0 z m 2.59884,3.498655 c 1.27974,-3.346058 -3.92807,-1.174914 0,0 z m 3.09032,-1.345395 c 0.81105,-2.875131 -3.20635,-1.105023 0,0 z m -10.85683,-66.340792 c 7.51643,-2.621993 1.50688,-10.010206 3.29264,-7.947376 6.81292,-2.22768 1.31788,-11.37014 -2.63141,-5.54279 -4.054,1.8524 -2.74047,10.50247 -0.66123,13.490166 z m 0.89064,-10.811206 c 7.30864,-5.90991 0.11846,4.48164 0,0 z m -2.97064,-2.51937 c 2.04024,-5.19556 -3.1859,-4.77292 0,0 z m -0.42341,-4.81918 c 2.45434,-0.49043 -3.20949,-1.0833 0,0 z m -0.57953,-3.71273 c 5.07248,-2.93883 -3.44664,0.20018 0,0 z m 0.0993,-2.19283 c 2.2317,-2.25256 -3.03381,0.66621 0,0 z m 4.21569,5.08383 c 2.34254,-2.53736 -2.85336,1.19427 0,0 z m -5.35629,-9.23318 c 0.96974,-3.78168 -1.5918,2.12154 0,0 z m 9.37123,10.90327 c 2.46317,-1.49686 -1.32462,-1.78698 0,0 z m 34.83191,17.812967 c 2.86437,-8.193137 -3.45089,0.0039 0,0 z m 19.42181,-6.041707 c 2.64275,-1.58603 -1.8312,-1.08952 0,0 z m -2.55896,-14.18559 c 4.70708,-1.55756 -1.22699,-3.26224 0,0 z m -85.76682,68.42928 c 2.37577,-2.45342 1.03402,2.003176 0,0 z m 16.08657,20.276413 c 2.51967,-3.315725 1.29103,4.328627 0,0 z m -11.10487,-19.760036 c 3.1286,-4.797111 2.03448,4.463824 0,0 z m -6.75942,-11.799842 c 2.89366,-3.070001 2.91704,1.12645 0,0 z m -11.03069,-17.489294 c 2.01237,-1.005371 -0.43214,2.325857 0,0 z m 14.1962,18.533305 c 3.29792,0.0899 -0.59333,1.924959 0,0 z m -13.9328,-21.323602 c 2.3979,-1.963099 1.7019,3.057846 0,0 z m 31.64548,45.943133 c 1.31629,-2.093396 0.87871,2.131262 0,0 z m 2.1326,2.527235 c 2.85196,-0.312351 -1.30371,2.126122 0,0 z m -15.27048,-25.113166 c 5.12945,-0.362595 5.17907,6.756771 0.91113,0.800206 l -0.54416,-0.28677 z m 3.72152,5.356085 c 4.7044,-3.417781 4.12421,3.23284 0,0 z m -9.27332,-17.810691 c 3.38396,-1.10828 -2.56685,2.205626 0,0 z m 13.93433,18.867724 c 3.7298,-3.393694 0.82449,5.251216 0,0 z m -2.14849,-3.870825 c 2.2811,-3.126768 2.32321,3.040406 0,0 z m 6.54368,6.855818 c 1.784,-1.40218 0.39545,2.417972 0,0 z m -9.0454,-14.028145 c 2.12203,-1.155887 0.15293,2.534498 0,0 z m -16.98017,-31.808107 c 2.45835,-3.747278 -1.37318,4.57423 0,0 z m 8.43517,10.004246 c 1.46428,-1.169954 0.28222,2.609781 0,0 z M -353.1197,-96.0149 c 1.82278,-2.06278 -0.37644,3.872295 0,0 z m 27.64971,40.952171 c 1.053,-3.368529 1.97523,2.475083 0,0 z m -28.08805,-43.921419 c 1.31628,-2.093432 0.8787,2.131309 0,0 z m 2.91344,4.190322 c 2.48997,-1.509423 0.55319,2.540235 0,0 z m 20.98178,30.780939 c 2.49566,-1.507756 0.52476,2.417255 0,0 z m -15.32816,-22.958818 c -2.7533,-4.293925 0.64831,-9.40381 0.84738,-2.049385 0.33415,0.400217 0.27422,4.611583 -0.84738,2.049385 z m 13.30257,18.443829 c 2.93459,-1.318437 -0.77111,2.596849 0,0 z m 2.43898,2.532844 c -0.94058,-4.538358 3.8007,2.192688 0,0 z m -22.54644,-36.101368 c 4.04675,1.62859 2.47452,6.210999 0,0 z m 26.36937,38.404616 c 4.26027,-2.578122 -3.67167,-4.88762 -1.59189,-8.452631 -7.06957,3.097691 -0.49686,-7.206619 -6.55295,-9.555093 5.41508,-1.951741 4.38846,11.993254 10.43536,8.689502 4.52368,2.124988 0.0862,11.172968 -1.04219,10.758426 l -1.24835,-1.440204 z m 2.9618,4.415845 c 3.62555,-1.314444 0.0554,2.291214 0,0 z m 1.8508,1.205256 c -2.01089,-4.936887 1.35983,-7.615741 1.91176,-1.041512 2.34153,4.277354 0.14095,6.430601 -1.91176,1.041512 z m -26.46126,-38.65881 c 3.03715,-1.957091 0.68239,3.915485 0,0 z m 8.91832,11.607175 c -2.65964,-6.118638 4.39788,0.289562 0.20242,1.068279 z m 47.28106,67.115211 c 4.59584,-1.98883 0.52724,5.203242 0,0 z m 4.36853,3.69194 c 4.19428,-2.615351 8.66208,3.621571 2.00779,0.902143 -0.65941,0.313221 -2.76679,0.504672 -2.00779,-0.902143 z m -34.76543,-51.897213 c 3.73717,-3.378153 1.63679,3.759463 0,0 z m -15.07383,-26.242566 c 3.23177,-2.312974 0.70047,4.155912 0,0 z m 10.71809,15.083789 c 2.30715,-5.436237 0.0993,4.591043 0,0 z m 27.61069,41.004685 c 3.80097,-1.80725 0.1003,4.518525 0,0 z m -6.92385,-10.857874 c 1.60638,-2.807096 1.10395,2.540468 0,0 z m -13.44537,-21.651207 c 4.20266,-3.214349 1.52184,5.113053 0,0 z m 22.5563,32.003774 c -2.92242,-5.469462 4.36575,0.329498 0,0 z m -26.10571,-41.780358 c 3.01661,-1.435229 0.39724,3.687947 0,0 z m 10.18664,15.138489 c 1.31629,-2.093435 0.8787,2.131296 0,0 z m -14.48275,-21.945595 c 1.71373,-2.326985 1.23894,3.057116 0,0 z m 40.59981,59.348216 c 3.26203,-2.598382 2.26047,1.607736 0,0 z m -33.81727,-52.225807 c 3.21046,-2.480587 -0.21356,2.942967 0,0 z m 45.90858,67.563507 c 3.18774,-2.595703 1.46396,4.7592944 0,0 z m -15.64526,-24.419348 c 4.69824,-1.634856 2.72166,4.59078 0,0 z m -46.60648,-69.228775 c 4.55964,-0.27284 1.61187,5.005986 0,0 z m 24.4096,34.349013 c 4.51647,-5.072808 8.03045,5.663888 0.36409,1.670814 l -0.27879,-0.718114 z m -1.39861,-1.996166 c 2.93497,-0.890108 -1.13368,2.722944 0,0 z m 33.25037,48.580056 c 2.66527,-0.937222 0.21755,2.500503 0,0 z m -48.01895,-72.584296 c 0.47291,-5.829117 3.34857,1.145333 0,0 z m 4.0447,3.817821 c 2.56577,-3.370618 1.66936,3.164869 0,0 z m 11.79385,17.765214 c 1.34689,-2.588266 1.71337,1.287476 0,0 z m 45.17393,65.4129608 c 2.70784,-9.3096498 2.75687,5.400247 0,0 z m -35.09846,-55.2428258 c 1.8219,-5.939174 0.31082,5.129077 0,0 z m -26.84372,-39.193727 c 5.68827,-4.64456 5.1849,2.59524 0,0 z m 18.42475,24.856349 c 3.30691,-2.950132 -1.42871,3.546014 0,0 z m 6.77386,10.311228 c -2.00643,-4.563473 3.47809,3.185081 0,0 z m 33.03572,48.109366 c 1.65096,-3.32784 2.08501,1.658516 0,0 z m -7.07011,-11.049783 c 6.02586,-5.214777 3.37534,7.43202 0,0 z m -34.60465,-51.895665 c 3.97352,-3.663187 -0.91305,3.821971 0,0 z m -24.5499,-37.094645 c -1.98716,-9.10751 8.57343,1.22784 0.16168,1.85962 l -0.21294,-0.33886 z m 10.15938,14.49202 c 1.65302,-2.62237 1.42223,2.87951 0,0 z m 9.68897,13.501801 c 3.24803,-1.456166 -1.70355,2.452944 0,0 z m 52.48683,77.625242 c 2.41308,-1.409163 0.17153,2.924265 0,0 z m -36.44309,-53.927925 c 1.59436,-2.670402 1.34903,2.105309 0,0 z m -7.71303,-13.129487 c 3.47369,-0.233993 13.30066,5.239005 5.63064,4.166502 -2.1391,-0.944653 -4.54949,-1.914189 -5.63064,-4.166502 z m 7.10794,8.997426 c 4.75703,-3.880171 -1.11957,5.983645 0,0 z m -12.15803,-17.35385 c 1.22026,-2.75596 1.6699,1.171438 0,0 z m 1.91833,2.833256 c 2.12131,-2.952304 1.23611,3.224403 0,0 z m 37.15014,52.098693 c 9.58597,-4.998088 22.1397,-1.768443 30.40854,-9.595182 -0.18452,5.331338 16.16248,-1.504519 4.82015,2.612445 -11.74295,2.508787 -23.71905,4.168604 -35.11762,8.075603 -0.50545,-0.117548 -0.51676,-0.856525 -0.11107,-1.092866 z m -13.26527,-17.996249 c 2.48249,-0.725412 -0.69491,2.4795 0,0 z m 17.30076,25.526676 c 1.95101,-1.276768 0.98806,2.71444 0,0 z m -32.16532,-48.507195 c 2.83412,-1.405434 -1.19158,2.712214 0,0 z m 38.78695,57.109215 c 2.27896,-1.368199 -0.23723,2.571675 0,0 z m -2.91971,-5.55347 c 1.85877,-1.788382 -3.67681,-5.381367 1.65337,-2.86886 3.70708,-3.684487 10.56099,-0.282606 7.0326,2.242612 -3.5275,-0.739101 -8.11491,3.688266 -8.68597,0.626248 z m -17.77497,-26.127842 c 2.35377,-4.820372 0.54988,4.897745 0,0 z m 28.2248,41.3082018 c 3.65024,-0.1670018 -1.71036,2.7547352 0,0 z M -324.8061,-110.86119 c 1.28154,-3.353 0.0408,3.47822 0,0 z m 16.47416,23.517203 c 2.34265,-5.349865 2.48572,1.751046 0,0 z M -332.893,-124.40944 c 2.20125,-1.81851 0.28848,2.27273 0,0 z m 47.34434,69.412327 c 1.16511,-5.851233 9.92685,-6.497557 4.65285,-0.254897 -1.05363,0.936977 -3.86009,2.196716 -4.65285,0.254897 z m -13.26814,-20.511915 c 5.48424,0.117887 -0.15877,4.173436 0,0 z m 25.6958,37.353579 c 2.99258,-1.919542 -1.54815,2.651581 0,0 z m -53.26265,-78.905891 c 2.20126,-1.81851 0.28848,2.27274 0,0 z m 43.58922,63.867493 c 2.40072,-1.684459 -0.36842,2.677926 0,0 z m -26.0458,-38.613658 c 4.02421,-4.649469 4.43059,1.476358 0,0 z m 41.80459,60.129155 c -0.70211,-3.202956 9.14677,0.04445 2.16313,1.338888 -0.96519,0.532368 -2.53032,0.02356 -2.16313,-1.338888 z m -60.02979,-88.73631 c 1.33956,-2.68742 1.35989,1.89751 0,0 z m 38.58289,56.28239 c 3.97604,-2.991033 0.38606,4.777719 0,0 z m 2.53442,3.555876 c 4.96858,-4.479929 3.29935,3.724819 0,0 z m 14.89413,21.854395 c 2.40053,-1.68444 -0.36821,2.677855 0,0 z m -3.43627,-6.032637 c 3.29896,-1.692868 1.42248,2.362866 0,0 z m -27.51689,-42.538038 c 5.06817,-3.942508 2.01155,2.961963 0,0 z m 2.1918,3.472671 c 2.70622,-2.061426 -0.125,3.347118 0,0 z m 12.34549,17.385322 c 7.3797,0.881075 3.95794,-8.758464 3.60596,-6.339538 2.89659,-3.041504 2.55459,-6.113652 6.46227,-2.908868 2.52029,-1.949493 -1.93491,-5.488651 4.39362,-3.98288 1.79511,5.06439 -10.72445,6.843158 -0.69475,8.034643 5.26263,3.822708 -1.93645,7.353461 -3.85049,4.749825 -0.44875,3.192285 8.37101,10.896385 1.59358,5.669918 -3.71974,-1.676329 -7.3621,-4.269437 -11.51019,-5.2231 z m 6.40968,-0.888445 c 0.35743,-4.491596 -3.43397,2.493285 0,0 z m 1.36224,2.989913 c 2.52865,-2.039302 -3.89795,-0.195093 0,0 z m -0.69735,-2.255393 c 4.51502,-1.29294 -0.86975,-1.741929 0,0 z m 5.59529,0.06247 c 3.10012,-0.06889 -2.67987,-2.196546 0,0 z m -1.37445,-3.457787 c 1.59533,-2.655871 -2.27493,0.08429 0,0 z m -9.44329,6.336477 c 3.46238,-3.059458 2.43447,2.708434 0,0 z m 6.99181,9.78347 c 3.14939,-1.798802 -0.009,2.843762 0,0 z m 7.95416,10.013111 c 2.56732,-1.23008 -0.65283,2.744496 0,0 z m -27.37951,-40.847268 c 3.49735,-4.270832 2.5061,4.205009 0,0 z m 5.88729,5.665282 c 4.37196,-1.007486 1.97393,4.628839 0,0 z m 14.39361,19.525142 c 2.48421,-2.724838 1.50723,1.910406 0,0 z m 17.78722,26.065462 c 0.77916,0.783542 1.72225,1.731931 0,0 z m -9.65364,-15.195026 c 2.96956,-2.581735 0.26736,4.195196 0,0 z m 3.5671,2.944526 c 3.16014,-1.953911 -0.13171,3.208443 0,0 z m 12.09607,15.17807 c 0.72646,-2.264752 1.32677,1.849402 0,0 z m -8.89172,-13.802678 c 2.40077,-1.684479 -0.36855,2.677999 0,0 z m 1.63153,0.858018 c 3.3111,-1.217112 0.0985,2.144412 0,0 z m -11.32507,-19.362238 c 5.13528,0.01288 2.20054,5.629126 0,0 z m -16.49984,-24.641735 c 1.99377,-1.369203 0.51619,2.640945 0,0 z m 2.61412,1.199442 c 2.87923,-2.725528 0.0769,3.436569 0,0 z m 28.56121,42.333124 c 1.6439,-2.476095 0.74725,2.060144 0,0 z m -37.1961,-56.367566 c 2.98321,-0.94879 -1.34438,2.56443 0,0 z m -14.00757,-22.03111 c 2.34206,-3.69142 -0.80678,4.16664 0,0 z m 48.58136,71.13976 c 2.95906,-3.527377 18.11087,-1.876037 7.77459,1.876582 -6.10295,1.82611 0.58509,-4.200121 -5.2146,-1.635281 -0.48946,-0.08493 -2.50229,0.938338 -2.55999,-0.241301 z m -50.30951,-73.69512 c 3.00859,-5.83837 4.90278,2.46944 0,0 z m -3.05511,-5.62542 c 2.36181,-4.00495 1.93538,3.01754 0,0 z m 49.45616,71.486448 c 2.93403,-2.395902 -1.68763,2.969387 0,0 z m -7.60594,-12.518301 c -2.40744,-1.077692 3.21771,-5.679566 -0.67227,-3.10045 0.66958,-4.543229 8.84264,-11.353141 4.98144,-11.394682 4.69291,-0.717528 10.33799,-7.737703 11.02963,-8.288715 -1.70109,7.276774 -8.94085,14.766783 -12.32409,19.96975 -2.54693,-0.335755 0.46062,5.547018 -3.01471,2.814097 z m 11.33164,16.535482 c 2.36978,-1.996565 0.643,2.407789 0,0 z m 16.28693,23.406013 c 3.4659,-3.56323 4.53953,3.997434 0,0 z m -4.20775,-6.978903 c 1.64391,-2.476091 0.74728,2.06013 0,0 z m -57.60448,-88.239169 c 1.63087,-4.05725 1.04701,3.15497 0.065,1.71621 z m 20.49305,28.799401 c -0.88873,-7.205291 6.11246,-1.464596 0,0 z m -5.32454,-8.627341 c 1.9557,-3.25353 1.9482,5.53757 0,0 z m 2.77544,3.82077 c 2.34567,-2.06959 0.64021,3.619372 0,0 z m 37.98408,54.86267 c 0.88385,-4.282728 1.96461,2.72993 0,0 z m -14.21137,-22.368677 c 2.22444,-1.300925 -0.64123,2.406258 0,0 z m 17.77614,26.085191 c 2.2911,-0.241368 -1.22168,1.585433 0,0 z m -7.21296,-10.718632 c 4.60374,-4.534818 9.97957,-10.002857 14.86604,-11.723852 4.89506,6.454436 -11.04375,10.1497 -14.86604,11.723852 z m -33.20319,-51.176162 c 3.9132,-0.85327 -0.82726,4.34898 0,0 z m 5.29385,7.000609 c 2.06192,-3.235879 1.39958,1.825378 -0.0337,1.124671 z m 33.85053,49.922146 c 1.31629,-2.093435 0.8787,2.13129 0,0 z m -40.09161,-59.807465 c 2.49871,-1.79048 -0.45107,2.83378 0,0 z m 4.02981,5.26531 c 5.75287,-6.4823 6.51484,4.036898 0,0 z m 44.24067,64.423323 c 2.7912,-1.467577 -0.11937,2.641191 0,0 z m -49.44573,-73.911083 c 2.85488,-2.60987 1.71958,3.18363 0,0 z m 46.17696,66.024055 c 3.02752,-2.09627 -1.70305,2.760201 0,0 z m -3.42353,-4.215346 c 1.31628,-2.093432 0.87869,2.131298 0,0 z m -13.5939,-22.086411 c 2.04977,-0.656771 -0.80039,2.250828 0,0 z m 12.75881,18.720766 c 3.47824,-2.415676 -0.33154,2.06059 0,0 z m -3.39274,-6.910388 c 2.93045,-1.924457 2.46548,1.869542 0,0 z m 9.39635,12.453605 c 0.93056,0.2203 0.69034,0.163431 0,0 z m 7.43471,10.878648 c 3.21088,-4.211722 7.39013,1.331533 1.63931,1.160572 z m -29.19913,-43.143426 c 0.57096,-2.444237 1.29067,0.819073 0.23228,0.697866 z m 3.65972,5.170143 c 2.54576,-0.847357 -0.79026,2.350699 0,0 z m 23.66747,34.797262 c 2.90771,-1.179402 -0.0477,2.477575 0,0 z m -7.45067,-12.415619 c 2.51264,-0.444416 -1.42138,1.8504 0,0 z m -10.08171,-15.284722 c 3.6963,-0.957955 0.86311,4.067326 0,0 z m 9.52744,13.2985 c 2.92834,-2.033072 2.09552,1.616762 0,0 z m -15.29078,-23.485874 c 4.05687,-4.012207 3.03939,2.311179 0,0 z m 17.45124,24.748678 c 2.48107,-2.164649 1.14761,2.231829 0,0 z m 2.70576,1.641656 c 6.71525,-3.5051 4.76308,2.924022 0,0 z m 3.44215,3.02855 c -0.0912,-3.790748 1.33943,2.92015 0,0 z m -27.85001,-41.448282 c 3.2095,-1.780339 0.005,2.547131 0,0 z m 10.2777,14.248613 c 2.01967,-0.310754 -1.5483,1.84188 0,0 z m 21.65142,30.377115 c -4.73699,-6.942003 9.31091,-7.76079 7.23365,-0.612612 -4.52786,-4.284421 -5.15672,-2.987174 -6.53855,1.450034 l -0.62219,4.67e-4 z m -22.73439,-37.655807 c 8.0004,-3.879595 2.61663,7.047242 0,0 z m -1.80597,-2.415908 c 1.68067,-1.186908 -0.0704,1.985417 0,0 z m 12.74399,18.194584 c 2.4132,-2.099916 0.71526,2.452934 0,0 z m 16.5769,23.442322 c 4.48921,-1.987307 12.2954,1.198083 3.08817,0.700789 -0.70624,0.0525 -3.5472,1.135595 -3.08817,-0.700789 z m -33.4498,-51.288431 c 2.92908,-2.543561 -1.86686,3.658618 0,0 z m 12.5571,16.031738 c 2.35894,-2.457331 13.92313,-12.449062 4.10897,-10.07374 -1.79186,-6.236712 -8.30794,-5.308665 -10.63408,-2.02263 2.42189,-5.027809 12.02215,-6.574301 14.63639,-8.580631 4.48194,11.598457 12.12585,-2.3588 16.92644,-6.0816 2.86958,-3.35928 10.17412,-5.13313 3.01043,-0.66632 -1.87711,0.54739 -4.4155,6.97902 -1.19487,2.64277 -2.97958,5.00562 -3.53383,10.657538 -5.1804,15.109522 -4.32082,3.226208 1.38924,5.666864 0.53218,5.954135 -3.65425,4.184597 -11.17154,16.602723 -15.79374,10.300446 4.12172,-2.677915 4.04269,-8.515806 -0.0852,-2.613742 -8.02313,1.255064 1.3396,-7.385909 3.91662,-6.030392 -4.22588,0.736803 1.39806,-8.640871 -3.74359,-3.214511 -2.05886,1.610277 -3.71355,5.124506 -6.49919,5.276693 z m 9.53436,-3.632372 c 5.8524,-0.636419 -0.31647,-3.76764 0,0 z m -0.63707,-8.477137 c 3.23936,-1.941268 -2.48902,-0.371229 0,0 z m 9.90437,10.468438 c 2.08132,-1.587907 -3.46462,0.686265 0,0 z m -0.71361,-2.457244 c 4.47552,-2.177271 -3.71227,0.71649 0,0 z m -3.25918,-5.226971 c 5.16738,1.932284 5.30308,-6.513422 0.87565,-1.780731 -1.15615,-0.333079 -1.85082,1.256381 -0.87565,1.780731 z m 0.10888,-3.358061 c 5.84876,-3.248884 -3.21258,-1.934611 0,0 z m 5.70896,-5.800196 c 7.07235,-0.895837 -4.1033,-3.203098 0,0 z m -9.77967,28.332719 c 2.20223,-1.819657 0.28758,2.274605 0,0 z m 3.22472,1.638217 c 2.54895,-1.756052 -0.30555,2.648503 0,0 z m 14.51626,21.280076 c 3.29009,-2.170439 0.85773,3.581303 0,0 z m -28.32482,-42.543706 c -1.37066,-3.474621 4.30034,-0.482962 0,0 z m 5.53797,7.241936 c 0.89566,-1.765933 0.90265,2.00501 0,0 z m 25.59441,37.160279 c 1.61904,-1.656643 1.4727,2.379141 0,0 z m -17.44002,-26.346525 c 2.52104,-1.789738 0.58268,2.462463 0,0 z m -12.64199,-27.106427 c 1.3163,-2.093427 0.87871,2.131287 0,0 z m 13.02282,-1.620817 c 0.38773,-5.02315 1.25546,4.000627 0,0 z m 2.28423,-3.41156 c 3.69,-1.84278 -0.91306,3.5889 0,0 z m 6.41312,-3.76323 c 2.64664,-0.85306 -0.88407,2.65035 0,0 z"
         style="fill:#a31003;stroke-width:0.29687" />
    </g>
    <text
       id="text172"
       y="54.454624"
       x="-29.369301"
       style="font-style:normal;font-weight:normal;font-size:10.5833px;line-height:1.25;font-family:sans-serif;letter-spacing:0px;word-spacing:0px;fill:#000000;fill-opacity:1;stroke:none;stroke-width:0.264583"
       xml:space="preserve"><tspan
         style="stroke-width:0.264583"
         y="54.454624"
         x="-29.369301"
         id="tspan170"
         sodipodi:role="line"></tspan></text>
    <text
       id="text176"
       y="14.283189"
       x="-33.526443"
       style="font-style:normal;font-weight:normal;font-size:10.5833px;line-height:1.25;font-family:sans-serif;letter-spacing:0px;word-spacing:0px;fill:#000000;fill-opacity:1;stroke:none;stroke-width:0.264583"
       xml:space="preserve"><tspan
         style="stroke-width:0.264583"
         y="14.283189"
         x="-33.526443"
         id="tspan174"
         sodipodi:role="line"></tspan></text>
    <text
       id="text180"
       y="43.577168"
       x="-35.060509"
       style="font-style:normal;font-weight:normal;font-size:27.7891px;line-height:1.25;font-family:sans-serif;letter-spacing:0px;word-spacing:0px;fill:#000000;fill-opacity:1;stroke:none;stroke-width:0.264583;"
       xml:space="preserve"><tspan
         style="font-style:normal;font-variant:normal;font-weight:normal;font-stretch:normal;font-size:27.7891px;font-family:'Six Caps';-inkscape-font-specification:'Six Caps';stroke-width:0.264583;fill-opacity:1;fill:#000000;"
         y="43.577168"
         x="-35.060509"
         id="tspan178"
         sodipodi:role="line">Pheno</tspan></text>
  </g>
</svg>
